<svg id="Content" xmlns="http://www.w3.org/2000/svg" viewBox="0 0 600 182">
  <defs>
    <style>
      .cls-1 {
        fill: #003e7e;
      }

      .cls-2 {
        fill: #6d6e71;
      }
    </style>
  </defs>
  <title>2019_Logo</title>
  <g>
    <path class="cls-1" d="M187.15,51.93h13l2.7,52H191.91l-.07-11H178l-4.73,11H162.37Zm-5.49,32.38h10.19L191.79,61h-.15Z"/>
    <path class="cls-1" d="M217.56,51.93h10l-11,52h-10Z"/>
    <path class="cls-1" d="M235,51.93h10l-11,52H224Z"/>
    <path class="cls-1" d="M253.5,85.83,252.84,89c-1,4.58-.7,9.08,3,9.08,3.34,0,5.27-2.53,6.87-7.34h9c-2.3,9.09-7.74,14.19-17.2,14.19-14.56,0-12.77-11.2-10.69-21,2.23-10.47,6.34-20.2,19.87-20.2,11.71,0,12.66,7.84,10.1,19.84l-.47,2.25Zm11.52-6c1.05-6,1-9.32-3.11-9.32s-6.05,4.15-6.82,7.79l-.32,1.53Z"/>
    <path class="cls-1" d="M283.07,64.75h9.61l-1,4.59h.14A13.61,13.61,0,0,1,303,63.74c6.25,0,9.24,3.4,7.59,11.12l-6.16,29h-10l5.74-27C301,73,300,71.43,297,71.43c-3.42,0-5.76,2.11-6.69,6.48l-5.51,26h-10Z"/>
    <path class="cls-1" d="M336.88,78.55l-1.82,8.59H314.55l1.81-8.59Z"/>
    <path class="cls-1" d="M349.37,51.93h17.54c8.58,0,14.08,3.21,12,13.17-1.19,5.6-4.78,9.91-10.26,11.34l0,.17c5.57.79,8.36,5.15,6.88,12.06-1.72,8.16-7.22,15.22-19.45,15.22H338.34Zm5.95,21.32h3c5.74,0,8.79-2,9.82-6.83s-1-6.77-6.13-6.77h-3.78Zm-4.87,22.92h4.08c5,0,8.82-1.81,10.1-7.86s-1.76-7.79-6.35-7.79h-4.51Z"/>
    <path class="cls-1" d="M386.8,64.75h9.61L395.29,70h.15c2.84-3.78,6.2-6.24,10.35-6.24a12.13,12.13,0,0,1,1.8.14l-2.06,9.59c-1-.08-2.08-.14-3.08-.14a8.74,8.74,0,0,0-8.93,7.06l-5,23.5h-10Z"/>
    <path class="cls-1" d="M408.39,76.75l.2-1c1.92-9,8.76-12.06,16.32-12.06,11.94,0,13.13,4.92,11.63,12l-4.37,20.58c-.77,3.64-.91,5.32-.37,7.58h-9.59a14.18,14.18,0,0,1-.38-4.08h-.15c-3.2,4.08-6.25,5.1-11.05,5.1-7,0-8.19-6-7.08-11.2,1.57-7.37,5.18-10.33,12.49-12.24L422,80c3.17-.82,4.42-2,5-4.59.63-3-.29-4.8-3.64-4.8-3.05,0-5.09,2-5.74,5.1l-.24,1.09Zm16.73,7.56a15.38,15.38,0,0,1-4.71,2c-4.26.87-6.28,2.85-7,6.34-.63,3-.06,5.45,2.63,5.45a7.68,7.68,0,0,0,7.47-6Z"/>
    <path class="cls-1" d="M458.64,99.73h-.13c-3,3.66-6.05,5.18-10,5.18-8.23,0-10.74-6-7.64-20.6s8.17-20.57,16.39-20.57c3.78,0,6,1.52,7.44,4.63h.15l3.5-16.44h10l-11,52h-9.61Zm-5.19-2.53c4.43,0,6.24-4.38,8-12.89s1.87-12.88-2.58-12.88-6.16,4.37-8,12.88S449.09,97.2,453.45,97.2Z"/>
    <path class="cls-1" d="M485.46,51.93h10l-11,52H474.42Z"/>
    <path class="cls-1" d="M503.94,85.83,503.3,89c-1,4.58-.72,9.08,3,9.08,3.34,0,5.26-2.53,6.86-7.34h9c-2.29,9.09-7.75,14.19-17.2,14.19-14.55,0-12.75-11.2-10.67-21,2.23-10.47,6.33-20.2,19.85-20.2,11.73,0,12.68,7.84,10.13,19.84l-.49,2.25Zm11.53-6c1.06-6,1-9.32-3.12-9.32-4,0-6,4.15-6.81,7.79l-.32,1.53Z"/>
    <path class="cls-1" d="M524.08,109.19a14.54,14.54,0,0,0,2.57.21c3.7,0,5.52-2,6.55-5.51l-2.66-39.14H541l.08,27.05h.15l10.84-27h10l-17.22,36.51c-6.36,13.54-9,15.43-18.33,15.43H522.5Z"/>
  </g>
  <g>
    <polygon class="cls-1" points="76.05 105.01 77.36 105.01 76.71 101.4 76.05 105.01"/>
    <rect class="cls-1" x="62.35" y="101.06" width="1.69" height="5.68"/>
    <path class="cls-1" d="M114.08,95.27H46.17a1.5,1.5,0,0,0-1.06,2.56l13.68,13.68a14.6,14.6,0,0,0,10.33,4.28h22a14.6,14.6,0,0,0,10.33-4.28l13.68-13.68A1.5,1.5,0,0,0,114.08,95.27ZM65.44,106.83a1,1,0,0,1-.83,1,1.08,1.08,0,0,0,.72.71h0v.41h-.9a2.68,2.68,0,0,1-1.32-1.1H61.94a1,1,0,0,1-1-1V101a1,1,0,0,1,1-1h2.51a1,1,0,0,1,1,1Zm6.82,0a1,1,0,0,1-1,1h-2.5a1,1,0,0,1-1-1V100h1.39v6.74h1.69V100h1.4Zm5.77,1-.4-1.73H75.79l-.4,1.73H74L75.77,100h1.88l1.81,7.82Zm6.72,0H81.27V100h1.4v6.52h2.08Zm3.08,0h-1.4V100h1.4Zm5.23-6.74H91.94v6.74h-1.4v-6.74H89.42V100h3.64Zm4.71,3.12v3.62h-1.3v-3.62L94.31,100h1.56l1.25,2.72L98.37,100h1.56Z"/>
    <path class="cls-1" d="M100.35,70.16h-6.8V66.8h5.16a2.3,2.3,0,0,0,2.09-2V57.92a2.43,2.43,0,0,0-2.54-2.18H90.37V82h10.07A3.18,3.18,0,0,0,103,79.41V72.79A3.16,3.16,0,0,0,100.35,70.16Z"/>
    <path class="cls-1" d="M117.52,53.74,101,37.21a13,13,0,0,0-9.16-3.79H68.43a13,13,0,0,0-9.16,3.79L42.74,53.74a13,13,0,0,0-3.8,9.17l0,24.26a5.2,5.2,0,0,0,5.21,5.2H116.1a5.21,5.21,0,0,0,5.21-5.21V62.91A13,13,0,0,0,117.52,53.74ZM70.33,85.39s.33-.71-.49-2.84l-2.5-6.5H58.82V72.7h7.34L60.6,58.13l-9,24.72a4.49,4.49,0,0,0-.09,2.54H46.24c.25,0,1-.47,2-3.35L58.75,52.22h7L77.93,83.58s.62,1.6,1.29,1.81ZM80.7,70.25H75.8V66.89h4.9ZM110,79.6a5.8,5.8,0,0,1-5.8,5.8H82.66c1-1,.82-3.35.82-3.35V56.53c0-3.41-1.09-4.31-1.09-4.31H103a5.46,5.46,0,0,1,5.18,5.45v6.07a4.31,4.31,0,0,1-4.31,4.32h.46A5.65,5.65,0,0,1,110,73.71Z"/>
  </g>
  <g>
    <path class="cls-2" d="M289.79,139.59a9.66,9.66,0,0,1-.31,2.79,4,4,0,0,1-4,3,3.55,3.55,0,0,1-1.61-.35,3.12,3.12,0,0,1-1.21-1s0,0-.07,0,0,0,0,.05v.95a.2.2,0,0,1-.22.22h-1.13a.19.19,0,0,1-.21-.22V130c0-.15.07-.22.21-.22h1.13a.2.2,0,0,1,.22.22v5.19a.06.06,0,0,0,0,.06s.05,0,.08,0a3.15,3.15,0,0,1,1.21-1,3.56,3.56,0,0,1,1.61-.36,4.19,4.19,0,0,1,2.62.81,4.09,4.09,0,0,1,1.45,2.21A11.41,11.41,0,0,1,289.79,139.59Zm-1.65,1.62a11.26,11.26,0,0,0,.09-1.62,9.25,9.25,0,0,0-.12-1.69,3.81,3.81,0,0,0-.39-1.09,2.51,2.51,0,0,0-.92-1.16,2.57,2.57,0,0,0-1.52-.44,2.33,2.33,0,0,0-1.44.45,2.41,2.41,0,0,0-.87,1.2,4,4,0,0,0-.32,1.06,10.21,10.21,0,0,0-.1,1.67,10,10,0,0,0,.1,1.64,4.38,4.38,0,0,0,.3,1,2.69,2.69,0,0,0,.88,1.24,2.35,2.35,0,0,0,1.47.46,2.81,2.81,0,0,0,1.6-.46,2.42,2.42,0,0,0,.93-1.26A3.61,3.61,0,0,0,288.14,141.21Z"/>
    <path class="cls-2" d="M292.13,149.34v-.88a.19.19,0,0,1,.22-.22h.08a3.51,3.51,0,0,0,1.34-.25,2,2,0,0,0,.81-.86,11.6,11.6,0,0,0,.74-1.91c0-.06,0-.1,0-.13l-3.72-10.83,0-.09c0-.1.06-.15.19-.15h1.17a.27.27,0,0,1,.27.18l2.86,8.89a.05.05,0,0,0,.06,0,.08.08,0,0,0,.07,0L299,134.2a.25.25,0,0,1,.26-.18h1.15c.16,0,.22.08.17.24l-4.07,11.87a10.74,10.74,0,0,1-1,2.18,2.51,2.51,0,0,1-1.16,1,5.3,5.3,0,0,1-1.95.28h-.15C292.18,149.56,292.13,149.49,292.13,149.34Z"/>
    <path class="cls-2" d="M315.06,145l-2.75-6.1a.14.14,0,0,0-.13-.09h-2.05a.1.1,0,0,0-.11.11v6a.25.25,0,0,1-.07.19.29.29,0,0,1-.19.08h-2.58a.25.25,0,0,1-.18-.08.22.22,0,0,1-.08-.19V130a.25.25,0,0,1,.08-.19.24.24,0,0,1,.18-.07h6.3a5.22,5.22,0,0,1,2.48.57,4,4,0,0,1,1.65,1.63,5,5,0,0,1,.58,2.44,4.36,4.36,0,0,1-.75,2.57,4,4,0,0,1-2.09,1.5.13.13,0,0,0-.07.16l3,6.23a.3.3,0,0,1,0,.13q0,.18-.24.18h-2.71A.33.33,0,0,1,315.06,145Zm-5-12.44v3.76c0,.08,0,.12.11.12H313a2.16,2.16,0,0,0,1.51-.55,1.93,1.93,0,0,0,.58-1.44,2,2,0,0,0-.58-1.44,2.12,2.12,0,0,0-1.51-.56h-2.89A.1.1,0,0,0,310,132.52Z"/>
    <path class="cls-2" d="M322.89,144.7a5.11,5.11,0,0,1-2-2,5.76,5.76,0,0,1-.72-2.91V135.1a5.71,5.71,0,0,1,.72-2.89,5.18,5.18,0,0,1,2-2,6.39,6.39,0,0,1,3-.69,6.47,6.47,0,0,1,3.05.69,5.08,5.08,0,0,1,2,2,5.62,5.62,0,0,1,.73,2.89v4.71a5.77,5.77,0,0,1-.73,2.93,5,5,0,0,1-2,2,6.47,6.47,0,0,1-3.05.69A6.39,6.39,0,0,1,322.89,144.7Zm5-2.74a2.82,2.82,0,0,0,.74-2v-4.85a2.86,2.86,0,0,0-.73-2,2.58,2.58,0,0,0-2-.78A2.55,2.55,0,0,0,324,133a2.86,2.86,0,0,0-.74,2v4.85a2.82,2.82,0,0,0,.74,2,2.55,2.55,0,0,0,1.95.78A2.61,2.61,0,0,0,327.88,142Z"/>
    <path class="cls-2" d="M336.5,144.66a4.84,4.84,0,0,1-2-1.88,5.47,5.47,0,0,1-.7-2.8V134.9a5.47,5.47,0,0,1,.7-2.8,4.82,4.82,0,0,1,2-1.87,7.3,7.3,0,0,1,6,0,4.77,4.77,0,0,1,2,1.78,5,5,0,0,1,.71,2.68c0,.13-.09.21-.26.24l-2.58.15h0c-.15,0-.22-.08-.22-.24a2.49,2.49,0,0,0-.72-1.87,2.54,2.54,0,0,0-1.88-.7,2.57,2.57,0,0,0-1.9.7,2.49,2.49,0,0,0-.72,1.87v5.31a2.44,2.44,0,0,0,.72,1.84,2.58,2.58,0,0,0,1.9.71,2.55,2.55,0,0,0,1.88-.71,2.44,2.44,0,0,0,.72-1.84c0-.17.09-.24.26-.24l2.58.1a.29.29,0,0,1,.18.07.18.18,0,0,1,.08.15,5.1,5.1,0,0,1-.71,2.69,4.84,4.84,0,0,1-2,1.81,6.67,6.67,0,0,1-3,.63A6.49,6.49,0,0,1,336.5,144.66Z"/>
    <path class="cls-2" d="M347.57,145.08a.22.22,0,0,1-.08-.19V130a.25.25,0,0,1,.08-.19.24.24,0,0,1,.18-.07h2.58a.24.24,0,0,1,.26.26v6.16c0,.05,0,.08.05.08s.05,0,.09,0l5.08-6.32a.43.43,0,0,1,.33-.15h2.91c.11,0,.19,0,.22.1a.27.27,0,0,1,0,.23l-4.91,6.27a.14.14,0,0,0,0,.16l5.2,8.34a.8.8,0,0,1,0,.15c0,.11-.07.16-.22.16h-2.9a.31.31,0,0,1-.31-.18l-3.92-6.34a.08.08,0,0,0-.07,0,.12.12,0,0,0-.09,0l-1.38,1.74a.36.36,0,0,0-.05.13v4.38a.25.25,0,0,1-.07.19.29.29,0,0,1-.19.08h-2.58A.25.25,0,0,1,347.57,145.08Z"/>
    <path class="cls-2" d="M364.37,144.94,360.48,130l0-.08c0-.14.09-.2.25-.2h2.73a.27.27,0,0,1,.28.22l2.09,9c0,.06,0,.09.07.09s.05,0,.07-.09l2-8.94a.29.29,0,0,1,.29-.24h2.66a.29.29,0,0,1,.31.22l2.2,9s0,.07.07.07.05,0,.06-.07l2-8.94a.28.28,0,0,1,.29-.24h2.59c.21,0,.29.09.25.28l-3.62,14.91a.29.29,0,0,1-.3.22h-2.62a.28.28,0,0,1-.29-.22l-2.25-9.53q0-.09-.06-.09s-.05,0-.07.09l-2.09,9.51a.26.26,0,0,1-.28.24h-2.45A.3.3,0,0,1,364.37,144.94Z"/>
    <path class="cls-2" d="M391.06,132.33a.22.22,0,0,1-.18.08h-7.22a.1.1,0,0,0-.11.11v3.41c0,.08,0,.11.11.11h4.73a.27.27,0,0,1,.19.08.25.25,0,0,1,.07.19v2.13a.25.25,0,0,1-.07.19.27.27,0,0,1-.19.08h-4.73c-.08,0-.11,0-.11.11v3.56c0,.08,0,.11.11.11h7.22a.25.25,0,0,1,.18.08.24.24,0,0,1,.08.19v2.13a.22.22,0,0,1-.08.19.25.25,0,0,1-.18.08H380.71a.27.27,0,0,1-.27-.27V130a.29.29,0,0,1,.08-.19.25.25,0,0,1,.19-.07h10.17a.24.24,0,0,1,.18.07.25.25,0,0,1,.08.19v2.14A.22.22,0,0,1,391.06,132.33Z"/>
    <path class="cls-2" d="M393.38,145.08a.26.26,0,0,1-.08-.19V130a.29.29,0,0,1,.08-.19.24.24,0,0,1,.18-.07h2.58a.24.24,0,0,1,.26.26v12.37a.1.1,0,0,0,.11.11h7.2a.27.27,0,0,1,.27.27v2.13a.26.26,0,0,1-.08.19.27.27,0,0,1-.19.08H393.56A.25.25,0,0,1,393.38,145.08Z"/>
    <path class="cls-2" d="M406,145.08a.26.26,0,0,1-.08-.19V130a.29.29,0,0,1,.08-.19.25.25,0,0,1,.19-.07h2.57a.25.25,0,0,1,.19.07.29.29,0,0,1,.08.19v12.37c0,.08,0,.11.11.11h7.19a.26.26,0,0,1,.19.08.27.27,0,0,1,.08.19v2.13a.27.27,0,0,1-.27.27H406.16A.26.26,0,0,1,406,145.08Z"/>
    <path class="cls-2" d="M432.4,144.94l-.66-2.16c0-.06-.07-.09-.11-.09h-5.42s-.08,0-.11.09l-.64,2.16a.28.28,0,0,1-.28.22h-2.8a.26.26,0,0,1-.2-.08.25.25,0,0,1,0-.23L426.92,130a.27.27,0,0,1,.28-.22h3.46a.29.29,0,0,1,.29.22l4.75,14.88a.2.2,0,0,1,0,.11c0,.13-.08.2-.24.2h-2.8A.28.28,0,0,1,432.4,144.94ZM427,140.29h3.88c.09,0,.11,0,.09-.13l-2-6.54c0-.06,0-.08-.06-.08s0,0-.07.08l-1.93,6.54C426.88,140.25,426.91,140.29,427,140.29Z"/>
    <path class="cls-2" d="M440,144.67a4.8,4.8,0,0,1-2-1.86,5.26,5.26,0,0,1-.72-2.76V130a.29.29,0,0,1,.08-.19.24.24,0,0,1,.18-.07h2.58a.26.26,0,0,1,.19.07.28.28,0,0,1,.07.19v10.06a2.6,2.6,0,1,0,5.2,0V130a.29.29,0,0,1,.08-.19.24.24,0,0,1,.18-.07h2.58a.24.24,0,0,1,.26.26v10a5.35,5.35,0,0,1-.71,2.76,4.88,4.88,0,0,1-2,1.86,7.06,7.06,0,0,1-6,0Z"/>
    <path class="cls-2" d="M462,129.82a.28.28,0,0,1,.07.19v2.16a.24.24,0,0,1-.26.26h-3.94a.1.1,0,0,0-.11.11v12.35a.27.27,0,0,1-.27.27h-2.57a.27.27,0,0,1-.19-.08.25.25,0,0,1-.07-.19V132.54a.1.1,0,0,0-.11-.11h-3.83a.25.25,0,0,1-.19-.07.27.27,0,0,1-.08-.19V130a.29.29,0,0,1,.08-.19.25.25,0,0,1,.19-.07h11.09A.26.26,0,0,1,462,129.82Z"/>
    <path class="cls-2" d="M465.91,144.7a5,5,0,0,1-2-2,5.67,5.67,0,0,1-.73-2.91V135.1a5.62,5.62,0,0,1,.73-2.89,5.08,5.08,0,0,1,2-2,7,7,0,0,1,6.08,0,5.08,5.08,0,0,1,2,2,5.62,5.62,0,0,1,.73,2.89v4.71a5.77,5.77,0,0,1-.73,2.93,5,5,0,0,1-2,2,7,7,0,0,1-6.08,0Zm5-2.74a2.79,2.79,0,0,0,.75-2v-4.85a2.86,2.86,0,0,0-.74-2,2.58,2.58,0,0,0-2-.78A2.55,2.55,0,0,0,467,133a2.86,2.86,0,0,0-.73,2v4.85a2.82,2.82,0,0,0,.73,2,2.55,2.55,0,0,0,1.95.78A2.59,2.59,0,0,0,470.9,142Z"/>
    <path class="cls-2" d="M487.34,129.75h2.58a.24.24,0,0,1,.18.07.29.29,0,0,1,.08.19v14.88a.26.26,0,0,1-.08.19.25.25,0,0,1-.18.08h-2.58a.25.25,0,0,1-.18-.08.22.22,0,0,1-.08-.19v-9.7c0-.06,0-.09-.05-.09s0,0-.09.06l-2.33,3.66a.34.34,0,0,1-.31.17H483a.34.34,0,0,1-.3-.17l-2.34-3.66s-.06-.06-.08,0,0,0,0,.1v9.68a.25.25,0,0,1-.07.19.29.29,0,0,1-.19.08h-2.58a.29.29,0,0,1-.19-.08.25.25,0,0,1-.07-.19V130a.24.24,0,0,1,.26-.26H480a.37.37,0,0,1,.31.17l3.3,5.13c0,.09.09.09.13,0l3.32-5.13A.37.37,0,0,1,487.34,129.75Z"/>
    <path class="cls-2" d="M502.38,144.94l-.66-2.16c0-.06-.07-.09-.11-.09h-5.42s-.08,0-.11.09l-.64,2.16a.28.28,0,0,1-.28.22h-2.8a.26.26,0,0,1-.2-.08.25.25,0,0,1,0-.23L496.9,130a.26.26,0,0,1,.28-.22h3.46a.27.27,0,0,1,.28.22l4.76,14.88a.36.36,0,0,1,0,.11c0,.13-.08.2-.24.2h-2.8A.28.28,0,0,1,502.38,144.94ZM497,140.29h3.88c.08,0,.11,0,.08-.13l-2-6.54c0-.06,0-.08-.06-.08s-.05,0-.07.08l-1.94,6.54C496.86,140.25,496.89,140.29,497,140.29Z"/>
    <path class="cls-2" d="M516.56,129.82a.25.25,0,0,1,.08.19v2.16a.24.24,0,0,1-.08.19.24.24,0,0,1-.18.07h-3.94a.1.1,0,0,0-.11.11v12.35a.27.27,0,0,1-.27.27h-2.57a.27.27,0,0,1-.27-.27V132.54a.1.1,0,0,0-.11-.11h-3.83a.24.24,0,0,1-.18-.07.24.24,0,0,1-.08-.19V130a.25.25,0,0,1,.08-.19.24.24,0,0,1,.18-.07h11.1A.24.24,0,0,1,516.56,129.82Z"/>
    <path class="cls-2" d="M518.7,145.08a.26.26,0,0,1-.08-.19V130a.29.29,0,0,1,.08-.19.25.25,0,0,1,.19-.07h2.57a.25.25,0,0,1,.19.07.29.29,0,0,1,.08.19v14.88a.27.27,0,0,1-.27.27h-2.57A.26.26,0,0,1,518.7,145.08Z"/>
    <path class="cls-2" d="M526.87,144.7a5.05,5.05,0,0,1-2-2,5.77,5.77,0,0,1-.73-2.91V135.1a5.72,5.72,0,0,1,.73-2.89,5.11,5.11,0,0,1,2-2,6.38,6.38,0,0,1,3-.69,6.44,6.44,0,0,1,3.05.69,5,5,0,0,1,2,2,5.72,5.72,0,0,1,.73,2.89v4.71a5.87,5.87,0,0,1-.73,2.93,5,5,0,0,1-2,2,7,7,0,0,1-6.07,0Zm5-2.74a2.79,2.79,0,0,0,.75-2v-4.85a2.82,2.82,0,0,0-.74-2,2.84,2.84,0,0,0-3.91,0,2.82,2.82,0,0,0-.74,2v4.85a2.78,2.78,0,0,0,.74,2,2.55,2.55,0,0,0,1.94.78A2.59,2.59,0,0,0,531.85,142Z"/>
    <path class="cls-2" d="M547,129.82a.25.25,0,0,1,.19-.07h2.57a.26.26,0,0,1,.19.07.28.28,0,0,1,.07.19v14.88a.25.25,0,0,1-.07.19.27.27,0,0,1-.19.08h-2.49a.3.3,0,0,1-.3-.18l-5.71-9.42s-.06-.06-.08-.06-.05,0-.05.1l.05,9.29a.27.27,0,0,1-.27.27h-2.57a.27.27,0,0,1-.27-.27V130a.29.29,0,0,1,.08-.19.25.25,0,0,1,.19-.07h2.48a.32.32,0,0,1,.31.17l5.68,9.38s.06.07.09.06,0,0,0-.1l0-9.25A.29.29,0,0,1,547,129.82Z"/>
  </g>
</svg>
